<svg width="290" height="39" viewBox="0 0 290 39" fill="none" xmlns="http://www.w3.org/2000/svg">
<path d="M7.86397 31.4564H19.7388V38.403H0V0.523929H7.8641V31.4561L7.86397 31.4564ZM48.6125 38.9273C37.4717 38.9273 29.2401 31.3253 29.2401 19.4502C29.2401 7.54924 37.4712 0 48.6125 0C59.7271 0 67.958 7.54951 67.958 19.4502C67.958 31.325 59.727 38.9273 48.6125 38.9273ZM48.6125 31.7185C55.1397 31.7185 60.1465 27.1311 60.1465 19.4506C60.1465 11.7962 55.1397 7.235 48.6125 7.235C42.0853 7.235 37.0785 11.7961 37.0785 19.4506C37.0785 27.1312 42.0853 31.7185 48.6125 31.7185ZM98.0644 38.9273C86.9236 38.9273 78.692 31.3516 78.692 19.4502C78.692 7.54883 86.9231 0 98.0644 0C106.505 0 113.268 4.3253 115.968 11.5077L108.629 14.1815C106.951 9.77758 102.94 7.23491 98.0645 7.23491C91.5373 7.23491 86.5305 11.796 86.5305 19.4505C86.5305 27.1049 91.5373 31.6922 98.0645 31.6922C102.94 31.6922 106.951 29.1232 108.629 24.7194L115.968 27.3932C113.269 34.5758 106.505 38.9273 98.0644 38.9273ZM153.86 38.403L151.108 30.5914H135.197L132.444 38.403H124.397L138.343 0.523929H147.963L161.91 38.403H153.862H153.86ZM137.504 24.0113H148.802L143.166 7.94191L137.504 24.0113ZM186.273 38.9273C178.147 38.9273 171.803 35.0214 170.649 27.9176L178.775 26.0565C179.3 30.3031 182.419 32.505 186.587 32.505C189.785 32.505 192.328 31.0895 192.302 27.8914C192.275 24.3263 188.081 23.1992 183.468 21.7836C177.91 20.0535 171.96 18.0089 171.96 11.0361C171.96 3.98466 177.727 0.000134396 185.329 0.000134396C191.987 0.000134396 198.698 2.70011 200.218 9.96132L192.617 11.8488C191.909 8.07401 189.366 6.42252 185.801 6.42252C182.629 6.42252 179.929 7.73319 179.929 10.8526C179.929 13.7624 183.651 14.7322 187.951 16.0168C193.665 17.7469 200.428 19.9488 200.428 27.4983C200.428 35.5459 193.691 38.9274 186.273 38.9274L186.273 38.9273ZM226.367 38.9273C218.24 38.9273 211.897 35.0214 210.743 27.9176L218.869 26.0565C219.393 30.3031 222.513 32.505 226.681 32.505C229.879 32.505 232.421 31.0895 232.395 27.8914C232.369 24.3263 228.175 23.1992 223.561 21.7836C218.004 20.0535 212.054 18.0089 212.054 11.0361C212.054 3.98466 217.821 0.000134396 225.422 0.000134396C232.081 0.000134396 238.791 2.70011 240.312 9.96132L232.71 11.8488C232.002 8.07401 229.46 6.42252 225.895 6.42252C222.723 6.42252 220.023 7.73319 220.023 10.8526C220.023 13.7624 223.745 14.7322 228.044 16.0168C233.759 17.7469 240.522 19.9488 240.522 27.4983C240.522 35.5459 233.785 38.9274 226.366 38.9274L226.367 38.9273ZM270.654 38.9273C259.514 38.9273 251.282 31.3253 251.282 19.4502C251.282 7.54924 259.513 0 270.654 0C281.769 0 290 7.54951 290 19.4502C290 31.325 281.769 38.9273 270.654 38.9273ZM270.654 31.7185C277.182 31.7185 282.189 27.1311 282.189 19.4506C282.189 11.7962 277.182 7.235 270.654 7.235C264.127 7.235 259.12 11.7961 259.12 19.4506C259.12 27.1312 264.127 31.7185 270.654 31.7185Z" fill="#1B264F"/>
</svg>
